<svg width="257" height="128" viewBox="0 0 257 128" fill="none" xmlns="http://www.w3.org/2000/svg">
<path d="M242.13 5.10449H8.73352C3.91021 5.10449 0 9.08207 0 13.9885V82.8928C0 89.8013 5.50535 95.4007 12.2968 95.4007H242.13C246.953 95.4007 250.863 91.4231 250.863 86.5167V28.546V13.9885C250.863 9.08207 246.953 5.10449 242.13 5.10449Z" fill="#273659"/>
<path d="M206.154 90.9775L238.677 127.473C239.136 127.987 239.977 127.658 239.977 126.963V90.9775H206.154Z" fill="#273659"/>
<path d="M247.347 0.52124H13.951C9.12771 0.52124 5.2175 4.49882 5.2175 9.40523V81.9335C5.2175 86.8399 9.12771 90.8175 13.951 90.8175H215.309L243.895 122.892C244.353 123.407 245.194 123.076 245.194 122.383V90.8175H247.347C252.17 90.8175 256.08 86.8399 256.08 81.9335V23.962V9.40523C256.08 4.49882 252.17 0.52124 247.347 0.52124V0.52124Z" fill="#E0A100"/>
<path d="M36.3594 52.464C36.1209 51.833 35.7873 51.1543 35.3579 50.4265C34.4998 48.8742 33.3073 47.2727 31.6854 45.672C31.256 45.1384 30.2545 44.2648 28.776 43.0034C27.4884 41.9363 26.5345 41.0142 25.9148 40.2381C24.2454 38.2005 23.3865 36.2114 23.3865 34.2222C23.3865 32.9608 23.625 31.8929 24.1496 31.0684C24.7224 30.0013 25.6281 29.4677 26.8205 29.4677C27.9179 29.4677 28.776 29.807 29.3488 30.5348C30.1594 31.5052 30.6839 32.8633 30.8749 34.659L37.0273 33.4944C36.8364 31.6511 36.3594 29.9529 35.5964 28.4973C34.8334 27.0901 33.7843 25.9262 32.5443 25.1493C30.9224 24.1305 28.9669 23.5969 26.6779 23.5969C24.2929 23.5969 22.2899 24.228 20.7156 25.441C18.0929 27.4302 16.8046 30.4381 16.8046 34.3673C16.8046 36.5507 17.2816 38.5399 18.2356 40.4323C19.0944 42.0814 20.6205 43.9254 22.7194 46.0597C25.2469 48.4857 27.1548 50.2806 28.4424 51.542C30.016 53.2886 30.8273 55.0835 30.8273 56.8792C30.8273 58.0922 30.6364 59.0618 30.2069 59.7413C29.3488 61.1001 28.2515 61.7788 26.8205 61.8279C25.819 61.8763 24.9609 61.4878 24.1979 60.6149C23.148 59.4987 22.4809 57.6554 22.2424 55.1326L16.1375 55.6178C16.2801 57.898 16.7571 59.9355 17.5201 61.7304C18.3314 63.5254 19.428 64.9326 20.8114 65.9514C22.4809 67.2127 24.5314 67.8438 27.059 67.8438C28.3948 67.8438 29.5873 67.6979 30.5888 67.3586C32.496 66.7759 33.9752 65.7571 35.0243 64.3015C36.5979 62.1673 37.3609 59.5962 37.3134 56.5882C37.3134 55.3752 36.9798 53.968 36.3594 52.464Z" fill="#D53229"/>
<path d="M59.9051 64.8433C61.8605 62.8541 62.8621 60.4281 62.8621 57.5169V24.1379H56.1851V57.4686C56.1851 58.5357 55.8515 59.4094 55.136 60.1372C54.4205 60.865 53.5617 61.2043 52.5126 61.2043C51.5111 61.2043 50.653 60.865 49.9375 60.1372C49.222 59.4094 48.8401 58.5357 48.8401 57.4686V24.1379H42.5926V57.5169C42.5926 60.3798 43.5941 62.805 45.5495 64.7942C47.505 66.7833 49.8892 67.8021 52.7035 67.8021C55.5171 67.8021 57.902 66.8325 59.9051 64.8433Z" fill="#D53229"/>
<path d="M80.3985 67.3018C82.0204 67.3018 83.6415 66.8174 85.2634 65.7978C86.6944 64.8766 87.8393 63.7119 88.6023 62.208C89.6038 60.3155 90.1283 57.987 90.1283 55.2217C90.1283 54.1546 90.0325 53.1358 89.8898 52.2138C89.5562 50.4672 89.0793 49.06 88.4589 47.9445C87.4574 46.343 86.2649 45.2275 84.834 44.6939C85.6928 44.3055 86.4083 43.7235 87.0755 42.9957C88.554 41.2492 89.3178 38.9207 89.3178 36.0578C89.3178 34.2629 89.1268 32.7589 88.6974 31.4492C87.9819 29.0232 86.7419 27.2766 84.9774 26.112C82.9743 24.7539 80.6845 24.0745 78.157 24.0745H68.5705V67.3018H80.3985ZM75.486 47.9928H78.157C79.7306 47.9928 80.923 48.478 81.7343 49.4968C82.64 50.6131 83.0694 52.3596 83.0694 54.7849C83.0694 55.7553 82.9268 56.6773 82.64 57.4535C81.7819 59.7336 80.3034 60.8499 78.157 60.8499H75.486V47.9928ZM75.486 30.673H78.157C79.397 30.673 80.446 31.1091 81.2098 31.9344C82.0679 32.8557 82.4974 34.2145 82.4974 36.0095C82.4974 37.1257 82.354 38.047 82.1155 38.7748C81.4476 40.764 80.1124 41.7344 78.157 41.7344H75.486V30.673Z" fill="#D53229"/>
<path d="M115.518 52.464C115.28 51.833 114.945 51.1543 114.517 50.4265C113.658 48.8742 112.465 47.2727 110.844 45.672C110.415 45.1384 109.413 44.2648 107.935 43.0034C106.646 41.9363 105.693 41.0142 105.073 40.2381C103.403 38.2005 102.545 36.2114 102.545 34.2222C102.545 32.9608 102.784 31.8929 103.308 31.0684C103.88 30.0013 104.787 29.4677 105.979 29.4677C107.076 29.4677 107.935 29.807 108.507 30.5348C109.317 31.5052 109.842 32.8633 110.033 34.659L116.185 33.4944C115.995 31.6511 115.518 29.9529 114.755 28.4973C113.991 27.0901 112.942 25.9262 111.702 25.1493C110.08 24.1305 108.125 23.5969 105.836 23.5969C103.451 23.5969 101.448 24.228 99.8744 25.441C97.251 27.4302 95.9634 30.4381 95.9634 34.3673C95.9634 36.5507 96.4404 38.5399 97.3944 40.4323C98.2525 42.0814 99.7785 43.9254 101.877 46.0597C104.405 48.4857 106.313 50.2806 107.6 51.542C109.175 53.2886 109.985 55.0835 109.985 56.8792C109.985 58.0922 109.794 59.0618 109.366 59.7413C108.507 61.1001 107.41 61.7788 105.979 61.8279C104.978 61.8763 104.119 61.4878 103.356 60.6149C102.307 59.4987 101.639 57.6554 101.4 55.1326L95.2955 55.6178C95.4389 57.898 95.9159 59.9355 96.6789 61.7304C97.4895 63.5254 98.5868 64.9326 99.9695 65.9514C101.639 67.2127 103.689 67.8438 106.218 67.8438C107.553 67.8438 108.745 67.6979 109.747 67.3586C111.655 66.7759 113.133 65.7571 114.182 64.3015C115.757 62.1673 116.52 59.5962 116.472 56.5882C116.472 55.3752 116.138 53.968 115.518 52.464Z" fill="#D53229"/>
<path d="M138.997 64.851C140.952 62.8618 141.954 60.4358 141.954 57.573V51.5571H135.324V57.4762C135.324 58.5434 134.943 59.417 134.228 60.1448C133.512 60.8726 132.654 61.212 131.652 61.212C130.603 61.212 129.745 60.8726 129.029 60.1448C128.314 59.417 127.979 58.5434 127.979 57.4762V33.8488C127.979 32.8301 128.314 31.9572 129.029 31.2294C129.745 30.5016 130.603 30.1131 131.652 30.1131C132.654 30.1131 133.512 30.5016 134.228 31.2294C134.943 31.9572 135.324 32.8301 135.324 33.8488V38.9434H141.954V33.9947C141.954 31.1319 140.952 28.7066 138.997 26.7175C137.041 24.6799 134.657 23.6604 131.843 23.6604C129.029 23.6604 126.644 24.6799 124.641 26.6683C122.686 28.7066 121.684 31.1319 121.684 33.9947V57.573C121.684 60.3874 122.686 62.8127 124.641 64.851C126.597 66.8401 129.029 67.8589 131.843 67.8589C134.609 67.8589 136.994 66.8401 138.997 64.851Z" fill="#D53229"/>
<path d="M147.224 24.1379V67.3169H153.615V51.0642H157.907L161.818 67.3169H168.686L163.964 48.4448C166.254 46.3581 167.398 43.787 167.398 40.7307V34.4239C167.398 31.3184 166.683 28.8924 165.204 27.1459C163.535 25.1567 160.912 24.1379 157.335 24.1379H147.224ZM161.151 40.8758C161.151 41.8953 160.817 42.7682 160.101 43.496C159.386 44.2238 158.48 44.6115 157.478 44.6115H153.615V30.7849H157.478C159.911 30.7849 161.151 32.0462 161.151 34.5206V40.8758Z" fill="#D53229"/>
<path d="M180.579 24.1379H174.188V67.3169H180.579V24.1379Z" fill="#D53229"/>
<path d="M198.14 67.3018C199.762 67.3018 201.384 66.8174 203.005 65.7978C204.436 64.8766 205.581 63.7119 206.344 62.208C207.345 60.3155 207.87 57.987 207.87 55.2217C207.87 54.1546 207.775 53.1358 207.631 52.2138C207.298 50.4672 206.821 49.06 206.201 47.9445C205.199 46.343 204.007 45.2275 202.576 44.6939C203.435 44.3055 204.15 43.7235 204.818 42.9957C206.296 41.2492 207.059 38.9207 207.059 36.0578C207.059 34.2629 206.868 32.7589 206.439 31.4492C205.724 29.0232 204.484 27.2766 202.719 26.112C200.716 24.7539 198.427 24.0745 195.899 24.0745H186.312V67.3018H198.14ZM193.228 47.9928H195.899C197.473 47.9928 198.665 48.478 199.476 49.4968C200.382 50.6131 200.811 52.3596 200.811 54.7849C200.811 55.7553 200.668 56.6773 200.382 57.4535C199.524 59.7336 198.045 60.8499 195.899 60.8499H193.228V47.9928ZM193.228 30.673H195.899C197.139 30.673 198.188 31.1091 198.951 31.9344C199.81 32.8557 200.239 34.2145 200.239 36.0095C200.239 37.1257 200.096 38.047 199.857 38.7748C199.19 40.764 197.854 41.7344 195.899 41.7344H193.228V30.673Z" fill="#D53229"/>
<path d="M231.632 67.3018V60.7524H219.804V48.9632H228.436V42.4138H219.804V30.6239H231.632V24.0745H213.413V67.3018H231.632Z" fill="#D53229"/>
<path d="M36.3594 49.5358C36.1209 48.9048 35.7873 48.2261 35.3579 47.4983C34.4998 45.9459 33.3073 44.3445 31.6854 42.7438C31.256 42.2102 30.2545 41.3365 28.776 40.0752C27.4884 39.008 26.5345 38.086 25.9148 37.3098C24.2454 35.2723 23.3865 33.2831 23.3865 31.294C23.3865 30.0326 23.625 28.9647 24.1496 28.1402C24.7224 27.073 25.6281 26.5395 26.8205 26.5395C27.9179 26.5395 28.776 26.8788 29.3488 27.6066C30.1594 28.577 30.6839 29.9351 30.8749 31.7308L37.0273 30.5662C36.8364 28.7229 36.3594 27.0247 35.5964 25.5691C34.8334 24.1618 33.7843 22.998 32.5443 22.221C30.9224 21.2023 28.9669 20.6687 26.6779 20.6687C24.2929 20.6687 22.2899 21.2998 20.7156 22.5128C18.0929 24.5019 16.8046 27.5099 16.8046 31.4391C16.8046 33.6225 17.2816 35.6116 18.2356 37.5041C19.0944 39.1531 20.6205 40.9972 22.7194 43.1315C25.2469 45.5575 27.1548 47.3524 28.4424 48.6138C30.016 50.3604 30.8273 52.1553 30.8273 53.951C30.8273 55.164 30.6364 56.1336 30.2069 56.8131C29.3488 58.1719 28.2515 58.8506 26.8205 58.8997C25.819 58.9481 24.9609 58.5596 24.1979 57.6867C23.148 56.5705 22.4809 54.7271 22.2424 52.2044L16.1375 52.6896C16.2801 54.9697 16.7571 57.0073 17.5201 58.8022C18.3314 60.5972 19.428 62.0044 20.8114 63.0232C22.4809 64.2845 24.5314 64.9156 27.059 64.9156C28.3948 64.9156 29.5873 64.7697 30.5888 64.4304C32.496 63.8477 33.9752 62.8289 35.0243 61.3733C36.5979 59.2391 37.3609 56.6679 37.3134 53.66C37.3134 52.447 36.9798 51.0398 36.3594 49.5358Z" fill="white"/>
<path d="M59.9051 61.9151C61.8605 59.9259 62.8621 57.4999 62.8621 54.5887V21.2097H56.1851V54.5404C56.1851 55.6075 55.8515 56.4812 55.136 57.209C54.4205 57.9368 53.5617 58.2761 52.5126 58.2761C51.5111 58.2761 50.653 57.9368 49.9375 57.209C49.222 56.4812 48.8401 55.6075 48.8401 54.5404V21.2097H42.5926V54.5887C42.5926 57.4515 43.5941 59.8768 45.5495 61.866C47.505 63.8551 49.8892 64.8739 52.7035 64.8739C55.5171 64.8739 57.902 63.9043 59.9051 61.9151Z" fill="white"/>
<path d="M80.3985 64.4061C82.0204 64.4061 83.6415 63.9209 85.2634 62.9021C86.6944 61.9801 87.8393 60.8155 88.6023 59.3115C89.6038 57.4198 90.1283 55.0906 90.1283 52.3252C90.1283 51.2581 90.0325 50.2393 89.8898 49.3173C89.5562 47.5707 89.0793 46.1635 88.4589 45.048C87.4574 43.4473 86.2649 42.331 84.834 41.7974C85.6928 41.409 86.4083 40.8271 87.0755 40.0993C88.554 38.3527 89.3178 36.0242 89.3178 33.1614C89.3178 31.3664 89.1268 29.8624 88.6974 28.5527C87.9819 26.1267 86.7419 24.3801 84.9774 23.2155C82.9743 21.8574 80.6845 21.178 78.157 21.178H68.5705V64.4061H80.3985ZM75.486 45.0964H78.157C79.7306 45.0964 80.923 45.5816 81.7343 46.6003C82.64 47.7166 83.0694 49.4632 83.0694 51.8884C83.0694 52.8588 82.9268 53.7808 82.64 54.557C81.7819 56.8371 80.3034 57.9534 78.157 57.9534H75.486V45.0964ZM75.486 27.7765H78.157C79.397 27.7765 80.446 28.2126 81.2098 29.0379C82.0679 29.9592 82.4974 31.318 82.4974 33.113C82.4974 34.2292 82.354 35.1505 82.1155 35.8783C81.4476 37.8675 80.1124 38.8379 78.157 38.8379H75.486V27.7765Z" fill="white"/>
<path d="M115.518 49.5358C115.28 48.9055 114.945 48.2261 114.517 47.4983C113.658 45.9459 112.465 44.3445 110.844 42.7438C110.415 42.2102 109.413 41.3365 107.935 40.0752C106.646 39.008 105.693 38.086 105.073 37.3098C103.403 35.2723 102.545 33.2831 102.545 31.294C102.545 30.0326 102.784 28.9655 103.308 28.1402C103.88 27.073 104.787 26.5395 105.979 26.5395C107.076 26.5395 107.935 26.8788 108.507 27.6066C109.317 28.577 109.842 29.9351 110.033 31.7308L116.185 30.5662C115.995 28.7229 115.518 27.0247 114.755 25.5691C113.991 24.1618 112.942 22.998 111.702 22.2218C110.08 21.2023 108.125 20.6687 105.836 20.6687C103.451 20.6687 101.448 21.2998 99.8744 22.5128C97.251 24.5019 95.9634 27.5099 95.9634 31.4398C95.9634 33.6225 96.4404 35.6116 97.3944 37.5041C98.2525 39.1531 99.7785 40.9972 101.877 43.1315C104.405 45.5575 106.313 47.3524 107.6 48.6138C109.175 50.3604 109.985 52.156 109.985 53.951C109.985 55.164 109.794 56.1344 109.366 56.8131C108.507 58.1719 107.41 58.8506 105.979 58.8997C104.978 58.9481 104.119 58.5596 103.356 57.6867C102.307 56.5705 101.639 54.7271 101.4 52.2044L95.2955 52.6896C95.4389 54.9697 95.9159 57.0073 96.6789 58.8022C97.4895 60.5972 98.5868 62.0044 99.9695 63.0232C101.639 64.2845 103.689 64.9156 106.218 64.9156C107.553 64.9156 108.745 64.7697 109.747 64.4304C111.655 63.8477 113.133 62.8289 114.182 61.3741C115.757 59.2391 116.52 56.6679 116.472 53.66C116.472 52.447 116.138 51.0398 115.518 49.5358Z" fill="white"/>
<path d="M138.997 61.9222C140.952 59.9331 141.954 57.5071 141.954 54.645V48.6284H135.324V54.5475C135.324 55.6146 134.943 56.4883 134.228 57.2161C133.512 57.9439 132.654 58.2832 131.652 58.2832C130.603 58.2832 129.745 57.9439 129.029 57.2161C128.314 56.4883 127.979 55.6146 127.979 54.5475V30.9201C127.979 29.9013 128.314 29.0284 129.029 28.3006C129.745 27.5728 130.603 27.1844 131.652 27.1844C132.654 27.1844 133.512 27.5728 134.228 28.3006C134.943 29.0284 135.324 29.9013 135.324 30.9201V36.0147H141.954V31.066C141.954 28.2039 140.952 25.7779 138.997 23.7887C137.041 21.7512 134.657 20.7324 131.843 20.7324C129.029 20.7324 126.644 21.7512 124.641 23.7404C122.686 25.7779 121.684 28.2039 121.684 31.066V54.645C121.684 57.4587 122.686 59.8847 124.641 61.9222C126.597 63.9114 129.029 64.9302 131.843 64.9302C134.609 64.9302 136.994 63.9114 138.997 61.9222Z" fill="white"/>
<path d="M147.224 21.2097V64.3887H153.615V48.1353H157.907L161.818 64.3887H168.686L163.964 45.5158C166.254 43.4299 167.398 40.858 167.398 37.8017V31.4949C167.398 28.3895 166.683 25.9642 165.204 24.2177C163.535 22.2285 160.912 21.2097 157.335 21.2097H147.224ZM161.151 37.9476C161.151 38.9664 160.817 39.8393 160.101 40.5671C159.386 41.2949 158.48 41.6833 157.478 41.6833H153.615V27.8559H157.478C159.911 27.8559 161.151 29.1173 161.151 31.5916V37.9476Z" fill="white"/>
<path d="M180.579 21.2097H174.188V64.3887H180.579V21.2097Z" fill="white"/>
<path d="M198.14 64.4061C199.762 64.4061 201.384 63.9209 203.005 62.9021C204.436 61.9801 205.581 60.8155 206.344 59.3115C207.345 57.4198 207.87 55.0906 207.87 52.3252C207.87 51.2581 207.775 50.2393 207.631 49.3173C207.298 47.5707 206.821 46.1642 206.201 45.048C205.199 43.4473 204.007 42.331 202.576 41.7974C203.435 41.409 204.15 40.8271 204.818 40.0993C206.296 38.3527 207.059 36.0242 207.059 33.1614C207.059 31.3664 206.868 29.8624 206.439 28.5527C205.724 26.1267 204.484 24.3801 202.719 23.2155C200.716 21.8574 198.427 21.178 195.899 21.178H186.312V64.4061H198.14ZM193.228 45.0964H195.899C197.473 45.0964 198.665 45.5816 199.476 46.6003C200.382 47.7166 200.811 49.4632 200.811 51.8884C200.811 52.8588 200.668 53.7808 200.382 54.557C199.524 56.8371 198.045 57.9534 195.899 57.9534H193.228V45.0964ZM193.228 27.7765H195.899C197.139 27.7765 198.188 28.2134 198.951 29.0379C199.81 29.9599 200.239 31.318 200.239 33.113C200.239 34.2292 200.096 35.1505 199.857 35.8783C199.19 37.8675 197.854 38.8379 195.899 38.8379H193.228V27.7765Z" fill="white"/>
<path d="M231.632 64.4061V57.8559H219.804V46.0668H228.436V39.5173H219.804V27.7282H231.632V21.178H213.413V64.4061H231.632Z" fill="white"/>
<path d="M193.247 96.8072L173.361 83.1226L172.565 82.5747L172.323 82.4084C171.781 82.0351 171.047 82.3888 170.986 83.0501L168.63 108.636C168.574 109.245 169.12 109.688 169.659 109.573C169.745 109.555 169.831 109.524 169.914 109.475L171.013 108.666L177.248 104.069L182.722 115.855C182.924 116.295 183.44 116.482 183.872 116.274L189.366 113.633C189.798 113.427 189.982 112.903 189.778 112.464L184.332 100.734L193.068 98.3497C193.72 98.1003 193.824 97.2055 193.247 96.8072Z" fill="#273659"/>
<path d="M195.449 93.4341L175.563 79.7488L174.767 79.2009L174.524 79.0338C173.983 78.662 173.249 79.0149 173.188 79.6762L170.832 105.263C170.776 105.872 171.322 106.315 171.861 106.198C171.947 106.18 172.033 106.151 172.116 106.102L173.215 105.292L179.449 100.695L184.924 112.482C185.126 112.92 185.641 113.108 186.073 112.9L191.568 110.26C192 110.053 192.184 109.529 191.98 109.09L186.534 97.3603L195.269 94.9767C195.922 94.7265 196.026 93.8309 195.449 93.4341Z" fill="white"/>
</svg>
