<svg width="165" height="119" viewBox="0 0 165 119" fill="none" xmlns="http://www.w3.org/2000/svg">
<path fill-rule="evenodd" clip-rule="evenodd" d="M9.89163 0.499512H154.171C159.613 0.499512 164.064 5.02662 164.064 10.5621V108.823C164.064 114.357 159.613 118.884 154.171 118.884H9.89163C4.45043 118.884 0 114.357 0 108.823V10.5621C0 5.02662 4.45043 0.499512 9.89163 0.499512V0.499512Z" fill="#49415C"/>
<path fill-rule="evenodd" clip-rule="evenodd" d="M13.5287 111.291V8.09802C13.5287 7.89738 13.6377 7.73291 13.7696 7.73291H148.46C148.592 7.73291 148.701 7.89738 148.701 8.09802V111.291C148.701 111.491 148.592 111.657 148.46 111.657H13.7696C13.6377 111.657 13.5287 111.491 13.5287 111.291Z" fill="white"/>
<path fill-rule="evenodd" clip-rule="evenodd" d="M3.8266 72.5329V46.861C3.8266 46.1646 4.38563 45.5959 5.07022 45.5959H5.07137C5.75481 45.5959 6.31499 46.1646 6.31499 46.861V72.5329C6.31499 73.2281 5.75481 73.7985 5.07137 73.7985H5.07022C4.38563 73.7985 3.8266 73.2281 3.8266 72.5329V72.5329Z" fill="#6D7F84"/>
<path fill-rule="evenodd" clip-rule="evenodd" d="M151.829 59.6813C151.829 57.3192 153.712 55.4038 156.034 55.4038C158.357 55.4038 160.239 57.3192 160.239 59.6813C160.239 62.0451 158.357 63.9576 156.034 63.9576C153.712 63.9576 151.829 62.0451 151.829 59.6813Z" fill="#6D7F84"/>
<path d="M148.701 7.73291H13.5287V110.577H148.701V7.73291Z" fill="white"/>
<path d="M146.066 10.4097H16.1552V22.4407H146.066V10.4097Z" fill="#CCD7DD"/>
<path d="M123.699 12.0852H58.7703V20.7866H123.699V12.0852Z" fill="white"/>
<path d="M27.73 13.3521H20.9861V14.6393H27.73V13.3521Z" fill="white"/>
<path d="M27.73 15.7837H20.9861V17.0703H27.73V15.7837Z" fill="white"/>
<path d="M27.73 18.2153H20.9861V19.5025H27.73V18.2153Z" fill="white"/>
<path d="M96.674 26.0413H16.1552V74.8648H96.674V26.0413Z" fill="#CCD7DD"/>
<path d="M122.472 26.0413H100.075V43.2212H122.472V26.0413Z" fill="#CCD7DD"/>
<path d="M74.9588 85.2549H30.22C29.1558 85.2549 28.2929 84.3771 28.2929 83.294C28.2929 82.2115 29.1558 81.3337 30.22 81.3337H74.9588C76.0235 81.3337 76.8864 82.2115 76.8864 83.294C76.8864 84.3771 76.0235 85.2549 74.9588 85.2549Z" fill="#CCD7DD"/>
<path d="M144.212 30.3561H126.145C125.644 30.3561 125.239 29.9438 125.239 29.4346C125.239 28.926 125.644 28.5137 126.145 28.5137H144.212C144.712 28.5137 145.117 28.926 145.117 29.4346C145.117 29.9438 144.712 30.3561 144.212 30.3561Z" fill="#CCD7DD"/>
<path d="M144.212 34.4625H126.145C125.644 34.4625 125.239 34.0501 125.239 33.5415C125.239 33.033 125.644 32.6206 126.145 32.6206H144.212C144.712 32.6206 145.117 33.033 145.117 33.5415C145.117 34.0501 144.712 34.4625 144.212 34.4625Z" fill="#CCD7DD"/>
<path d="M133.273 38.5702H126.145C125.644 38.5702 125.239 38.1573 125.239 37.6487C125.239 37.1401 125.644 36.7278 126.145 36.7278H133.273C133.773 36.7278 134.178 37.1401 134.178 37.6487C134.178 38.1573 133.773 38.5702 133.273 38.5702Z" fill="#CCD7DD"/>
<path d="M144.212 53.8952H126.145C125.644 53.8952 125.239 53.4828 125.239 52.9742C125.239 52.4651 125.644 52.0527 126.145 52.0527H144.212C144.712 52.0527 145.117 52.4651 145.117 52.9742C145.117 53.4828 144.712 53.8952 144.212 53.8952Z" fill="#CCD7DD"/>
<path d="M144.212 58.0024H126.145C125.644 58.0024 125.239 57.5888 125.239 57.0803C125.239 56.5717 125.644 56.1599 126.145 56.1599H144.212C144.712 56.1599 145.117 56.5717 145.117 57.0803C145.117 57.5888 144.712 58.0024 144.212 58.0024Z" fill="#CCD7DD"/>
<path d="M133.273 62.1089H126.145C125.644 62.1089 125.239 61.6966 125.239 61.188C125.239 60.6794 125.644 60.2671 126.145 60.2671H133.273C133.773 60.2671 134.178 60.6794 134.178 61.188C134.178 61.6966 133.773 62.1089 133.273 62.1089Z" fill="#CCD7DD"/>
<path d="M144.212 76.331H126.145C125.644 76.331 125.239 75.9186 125.239 75.4095C125.239 74.9009 125.644 74.4885 126.145 74.4885H144.212C144.712 74.4885 145.117 74.9009 145.117 75.4095C145.117 75.9186 144.712 76.331 144.212 76.331Z" fill="#CCD7DD"/>
<path d="M75.9844 93.0046H29.4292C28.9292 93.0046 28.5239 92.5922 28.5239 92.083C28.5239 91.5745 28.9292 91.1621 29.4292 91.1621H75.9844C76.4849 91.1621 76.8903 91.5745 76.8903 92.083C76.8903 92.5922 76.4849 93.0046 75.9844 93.0046Z" fill="#CCD7DD"/>
<path d="M75.9844 97.8468H29.4292C28.9292 97.8468 28.5239 97.4344 28.5239 96.9258C28.5239 96.4172 28.9292 96.0049 29.4292 96.0049H75.9844C76.4849 96.0049 76.8903 96.4172 76.8903 96.9258C76.8903 97.4344 76.4849 97.8468 75.9844 97.8468Z" fill="#CCD7DD"/>
<path d="M52.6859 102.71H29.4292C28.9292 102.71 28.5239 102.297 28.5239 101.789C28.5239 101.28 28.9292 100.868 29.4292 100.868H52.6859C53.1859 100.868 53.5912 101.28 53.5912 101.789C53.5912 102.297 53.1859 102.71 52.6859 102.71Z" fill="#CCD7DD"/>
<path d="M144.212 80.4382H126.145C125.644 80.4382 125.239 80.0258 125.239 79.5172C125.239 79.0081 125.644 78.5957 126.145 78.5957H144.212C144.712 78.5957 145.117 79.0081 145.117 79.5172C145.117 80.0258 144.712 80.4382 144.212 80.4382Z" fill="#CCD7DD"/>
<path d="M133.273 84.5453H126.145C125.644 84.5453 125.239 84.133 125.239 83.6244C125.239 83.1152 125.644 82.7029 126.145 82.7029H133.273C133.773 82.7029 134.178 83.1152 134.178 83.6244C134.178 84.133 133.773 84.5453 133.273 84.5453Z" fill="#CCD7DD"/>
<path d="M144.212 98.7662H126.145C125.644 98.7662 125.239 98.3538 125.239 97.8453C125.239 97.3367 125.644 96.9243 126.145 96.9243H144.212C144.712 96.9243 145.117 97.3367 145.117 97.8453C145.117 98.3538 144.712 98.7662 144.212 98.7662Z" fill="#CCD7DD"/>
<path d="M144.212 102.894H126.145C125.644 102.894 125.239 102.481 125.239 101.973C125.239 101.464 125.644 101.052 126.145 101.052H144.212C144.712 101.052 145.117 101.464 145.117 101.973C145.117 102.481 144.712 102.894 144.212 102.894Z" fill="#CCD7DD"/>
<path d="M133.273 107.001H126.145C125.644 107.001 125.239 106.588 125.239 106.08C125.239 105.571 125.644 105.159 126.145 105.159H133.273C133.773 105.159 134.178 105.571 134.178 106.08C134.178 106.588 133.773 107.001 133.273 107.001Z" fill="#CCD7DD"/>
<path d="M122.472 48.4771H100.075V65.6569H122.472V48.4771Z" fill="#CCD7DD"/>
<path d="M122.472 70.9331H100.075V88.113H122.472V70.9331Z" fill="#CCD7DD"/>
<path d="M122.472 93.3689H100.075V110.549H122.472V93.3689Z" fill="#CCD7DD"/>
<path d="M24.1856 83.2932C24.1856 85.5486 22.3882 87.3776 20.1704 87.3776C17.9526 87.3776 16.1552 85.5486 16.1552 83.2932C16.1552 81.0372 17.9526 79.2087 20.1704 79.2087C22.3882 79.2087 24.1856 81.0372 24.1856 83.2932Z" fill="#CCD7DD"/>
<path d="M39.5051 19.7675H34.8058C33.0049 19.7675 31.5319 18.2686 31.5319 16.4372C31.5319 14.6053 33.0049 13.1069 34.8058 13.1069H39.5051C41.3054 13.1069 42.779 14.6053 42.779 16.4372C42.779 18.2686 41.3054 19.7675 39.5051 19.7675Z" fill="#EF454F"/>
<path d="M118.039 14.1974C117.03 14.1974 116.212 15.0291 116.212 16.0556C116.212 17.0815 117.03 17.9132 118.039 17.9132C119.048 17.9132 119.865 17.0815 119.865 16.0556C119.865 15.0291 119.048 14.1974 118.039 14.1974ZM121.156 19.2261C120.941 19.4436 120.595 19.4436 120.381 19.2261L119.414 18.2422C119.016 18.5011 118.546 18.6563 118.039 18.6563C116.627 18.6563 115.482 17.4921 115.482 16.0556C115.482 14.6191 116.627 13.4543 118.039 13.4543C119.451 13.4543 120.595 14.6191 120.595 16.0556C120.595 16.5712 120.443 17.0494 120.189 17.4542L121.156 18.4381C121.369 18.6557 121.369 19.0085 121.156 19.2261Z" fill="#CCD7DD"/>
<path d="M139.504 16.4213C139.504 16.9462 139.075 17.3725 138.549 17.3725C138.022 17.3725 137.593 16.9462 137.593 16.4213C137.593 15.8975 138.022 15.4712 138.549 15.4712C139.075 15.4712 139.504 15.8975 139.504 16.4213ZM140.71 15.7412L140.559 15.3779C140.559 15.3779 140.909 14.5742 140.878 14.5433L140.414 14.0831C140.383 14.0516 139.593 14.4184 139.593 14.4184L139.228 14.2685C139.228 14.2685 138.906 13.4543 138.862 13.4543H138.208C138.163 13.4543 137.865 14.2703 137.865 14.2703L137.5 14.4202C137.5 14.4202 136.694 14.072 136.663 14.1029L136.201 14.5637C136.169 14.5952 136.537 15.3825 136.537 15.3825L136.386 15.7453C136.386 15.7453 135.569 16.0661 135.569 16.1093V16.7613C135.569 16.8062 136.389 17.1037 136.389 17.1037L136.539 17.4659C136.539 17.4659 136.189 18.269 136.22 18.2993L136.683 18.7607C136.714 18.7922 137.504 18.4259 137.504 18.4259L137.869 18.5758C137.869 18.5758 138.191 19.3894 138.235 19.3894H138.89C138.934 19.3894 139.233 18.5734 139.233 18.5734L139.598 18.423C139.598 18.423 140.403 18.7717 140.434 18.7414L140.898 18.2807C140.93 18.248 140.56 17.4612 140.56 17.4612L140.711 17.0984C140.711 17.0984 141.528 16.7776 141.528 16.7339V16.0824C141.529 16.0375 140.71 15.7412 140.71 15.7412V15.7412Z" fill="white"/>
<path d="M83.2915 82.437H82.522C82.3792 82.437 82.2623 82.5554 82.2623 82.7006V84.8703C82.2623 85.0155 82.3792 85.1345 82.522 85.1345H83.2915C83.4336 85.1345 83.5506 85.0155 83.5506 84.8703V82.7006C83.5506 82.5554 83.4336 82.437 83.2915 82.437Z" fill="#CCD7DD"/>
<path d="M86.7649 82.6857H86.7196C86.9449 82.6857 87.1295 82.4979 87.1295 82.2693C87.1295 82.0395 86.9449 81.8523 86.7196 81.8523H85.4049C85.5671 81.5921 85.7867 81.178 85.7867 80.8392C85.7867 80.3038 85.4983 80.0057 85.3103 79.9713C85.1222 79.9375 84.9835 80.0396 84.9296 80.2011C84.8751 80.3627 84.9714 80.6689 84.9342 80.7785C84.8768 80.9471 84.5861 81.1734 84.1934 81.686C83.8419 82.1445 83.8918 82.6857 83.8918 82.6857V84.5113C83.8918 84.6541 84.0065 84.7708 84.1469 84.7708H86.5894C86.7523 84.7708 86.887 84.6349 86.887 84.4687C86.887 84.3025 86.7523 84.1666 86.5894 84.1666H86.6313C86.8314 84.1666 86.9948 83.9998 86.9948 83.7968C86.9948 83.5927 86.8314 83.4264 86.6313 83.4264H86.7649C86.965 83.4264 87.1295 83.2596 87.1295 83.0561C87.1295 82.8525 86.965 82.6857 86.7649 82.6857V82.6857Z" fill="#CCD7DD"/>
<path d="M93.6749 84.1743H94.4443C94.5871 84.1743 94.7035 84.0547 94.7035 83.9101V81.7404C94.7035 81.5952 94.5871 81.4768 94.4443 81.4768H93.6749C93.5321 81.4768 93.4157 81.5952 93.4157 81.7404V83.9101C93.4157 84.0547 93.5321 84.1743 93.6749 84.1743Z" fill="#CCD7DD"/>
<path d="M90.1942 83.9093H90.2401C90.0153 83.9093 89.8301 84.0965 89.8301 84.3263C89.8301 84.5549 90.0153 84.7433 90.2401 84.7433H91.5554C91.3931 85.0029 91.1729 85.417 91.1729 85.7558C91.1729 86.2918 91.4619 86.5899 91.65 86.6231C91.838 86.6575 91.9762 86.5555 92.0301 86.3939C92.0852 86.2318 91.9888 85.9256 92.0261 85.8165C92.0834 85.6479 92.3736 85.4222 92.7669 84.909C93.1184 84.4505 93.0679 83.9093 93.0679 83.9093V83.1692V82.4285V82.0838C93.0679 81.9409 92.9532 81.8242 92.8128 81.8242H90.3702C90.2068 81.8242 90.0732 81.9601 90.0732 82.1263C90.0732 82.2926 90.2068 82.4285 90.3702 82.4285H90.3284C90.1283 82.4285 89.9643 82.5947 89.9643 82.7988C89.9643 83.0018 90.1283 83.1692 90.3284 83.1692H90.1942C89.9947 83.1692 89.8301 83.3354 89.8301 83.5389C89.8301 83.7425 89.9947 83.9093 90.1942 83.9093V83.9093Z" fill="#CCD7DD"/>
<path d="M73.8058 50.4539C73.8058 60.2237 66.0195 68.1441 56.4152 68.1441C46.8102 68.1441 39.0245 60.2237 39.0245 50.4539C39.0245 40.6835 46.8102 32.7637 56.4152 32.7637C66.0195 32.7637 73.8058 40.6835 73.8058 50.4539Z" fill="#EF454F"/>
<path d="M51.805 41.0598V59.8343L65.7314 50.4471L51.805 41.0598Z" fill="white"/>
<path d="M116.733 34.4543C116.733 37.5215 114.288 40.0079 111.273 40.0079C108.258 40.0079 105.815 37.5215 105.815 34.4543C105.815 31.3876 108.258 28.9019 111.273 28.9019C114.288 28.9019 116.733 31.3876 116.733 34.4543Z" fill="#EF454F"/>
<path d="M109.827 31.5173V37.411L114.199 34.4639L109.827 31.5173Z" fill="white"/>
<path d="M116.733 57.0745C116.733 60.1418 114.288 62.6281 111.273 62.6281C108.258 62.6281 105.815 60.1418 105.815 57.0745C105.815 54.0078 108.258 51.5215 111.273 51.5215C114.288 51.5215 116.733 54.0078 116.733 57.0745Z" fill="#EF454F"/>
<path d="M109.827 54.137V60.0306L114.199 57.0835L109.827 54.137Z" fill="white"/>
<path d="M116.733 79.96C116.733 83.0267 114.288 85.513 111.273 85.513C108.258 85.513 105.815 83.0267 105.815 79.96C105.815 76.8933 108.258 74.407 111.273 74.407C114.288 74.407 116.733 76.8933 116.733 79.96V79.96Z" fill="#EF454F"/>
<path d="M109.827 77.0222V82.9153L114.199 79.9687L109.827 77.0222V77.0222Z" fill="white"/>
<path d="M116.733 101.967C116.733 105.034 114.288 107.52 111.273 107.52C108.258 107.52 105.815 105.034 105.815 101.967C105.815 98.8999 108.258 96.4136 111.273 96.4136C114.288 96.4136 116.733 98.8999 116.733 101.967Z" fill="#EF454F"/>
<path d="M109.827 99.0085V104.902L114.199 101.954L109.827 99.0085Z" fill="white"/>
</svg>
