<svg width="229" height="192" viewBox="0 0 229 192" fill="none" xmlns="http://www.w3.org/2000/svg">
<path d="M114.825 65.4061C116.624 62.4729 119.482 58.5755 123.051 53.7666L123.052 53.7664C124.693 51.5558 126.348 49.3268 127.708 47.4013C129.095 45.4382 130.09 43.9072 130.487 43.0508L130.487 43.0505L131.795 40.2259L132.752 38.1609L134.273 39.8542L146.212 53.1496L146.212 53.1497C150.859 58.3252 155.529 63.5194 160.959 67.6105C163.79 64.6212 168.273 59.8528 173.282 54.5233L173.596 54.1892C187.503 39.3942 206.431 19.2581 210.225 15.7159L210.225 15.7154C211.638 14.3976 213.868 14.442 215.22 15.838C216.585 17.2459 216.525 19.4814 215.096 20.8164L215.096 20.8165C211.465 24.2094 192.44 44.4471 178.477 59.3034L178.476 59.3036L177.094 60.7737C171.134 67.1143 166.09 72.4797 163.99 74.6636L162.799 75.9032L161.933 76.8042L160.89 76.1156L159.45 75.1646C152.174 70.3592 146.402 63.9304 140.963 57.8716L140.908 57.81L140.908 57.8099L134.245 50.3897C132.749 52.5594 130.831 55.1427 128.786 57.8978L128.769 57.9203C126.842 60.5152 124.7 63.4017 122.948 65.9297C122.072 67.1939 121.305 68.3518 120.717 69.3273C120.109 70.3362 119.758 71.0435 119.634 71.4408L118.864 73.9052L118.298 75.7167L116.666 74.7478L114.418 73.4127L114.417 73.4125C110.067 70.8275 107.169 68.8108 103.547 66.2897L103.546 66.289L103.545 66.2885C102.403 65.4925 101.172 64.6359 99.7794 63.6798C96.6431 69.027 92.0915 77.984 88.5551 84.9431L88.5497 84.9539L88.5495 84.9542L88.4897 85.072C85.9648 90.0437 84.6626 92.6077 83.8748 93.9627C83.4846 94.6337 83.1477 95.1403 82.7753 95.5055C82.3419 95.9306 81.9264 96.096 81.6608 96.2017L81.6375 96.211L81.6361 96.2116C81.0063 96.4621 80.2912 96.6157 79.4927 96.4464C78.7298 96.2847 78.0762 95.8661 77.4756 95.354C76.3527 94.3964 74.9352 92.6737 72.8332 90.1191L72.678 89.9305C70.8016 87.6508 68.1421 84.426 66.2599 82.5764C58.715 87.8558 48.3653 94.3969 38.3622 100.719L38.2568 100.785L38.2566 100.786C31.1297 105.289 23.9017 109.856 17.9167 113.831C11.8847 117.837 7.25731 121.15 5.2245 123.162L114.825 65.4061ZM114.825 65.4061C112.35 63.8364 110.264 62.3843 107.633 60.5532L107.628 60.5503C105.701 59.2072 103.512 57.6853 100.722 55.8049L100.722 55.8046L99.0275 54.6637L97.8007 53.8375L96.9574 55.0526L95.8005 56.7193L95.8 56.7201C92.6411 61.2779 86.6413 73.087 82.2992 81.6332L82.2126 81.8037C81.2692 83.6601 80.3156 85.5364 79.5065 87.108C79.0622 86.5736 78.6088 86.0224 78.1789 85.5L78.1788 85.4998C76.0426 82.9041 74.1414 80.6253 72.4813 78.8556C70.858 77.1251 69.3204 75.7187 67.9024 75.0372C67.9021 75.0371 67.9019 75.037 67.9016 75.0369L66.7889 74.5015L65.9845 74.1145L65.2606 74.637L64.2619 75.3579C64.2617 75.358 64.2615 75.3582 64.2613 75.3584C56.7788 80.7532 45.4523 87.9116 34.4374 94.8706L34.4373 94.8706C26.8946 99.6368 19.5397 104.284 13.4921 108.314C7.4855 112.317 2.639 115.793 0.205165 118.205C-1.18686 119.583 -1.17641 121.82 0.22815 123.186C0.921043 123.86 1.82371 124.193 2.71525 124.193C3.61557 124.193 4.52832 123.853 5.22355 123.163L114.825 65.4061Z" fill="#37A61B" stroke="#37A61B" stroke-width="3"/>
<path d="M216.385 35.907L216.388 35.9074C216.647 35.95 216.906 35.9717 217.169 35.9717C219.546 35.9717 221.589 34.1841 221.967 31.7436L221.967 31.7396L222.029 31.3269L222.03 31.3226L222.035 31.2878C223.165 23.9997 224.547 15.0745 226.781 8.56867L226.783 8.56324C226.785 8.55877 226.786 8.55373 226.788 8.54813C226.791 8.54082 226.794 8.53257 226.797 8.52339C226.808 8.49097 226.822 8.44692 226.839 8.39235C226.872 8.28341 226.915 8.13137 226.957 7.9453C227.04 7.57598 227.123 7.05753 227.12 6.46717C227.115 5.28255 226.751 3.7192 225.249 2.59223C223.759 1.47511 222.24 1.54083 221.146 1.87752C220.609 2.04266 220.169 2.27271 219.864 2.45949C219.71 2.55366 219.587 2.63902 219.499 2.70339C219.455 2.73565 219.419 2.76283 219.393 2.78347C219.387 2.7881 219.382 2.7924 219.377 2.79636C218.342 3.54406 217.225 4.15949 216.056 4.62736C214.375 5.29984 212.516 5.70647 210.442 6.15851C210.441 6.15853 210.441 6.15854 210.441 6.15856L196.516 9.19049C193.86 9.76734 192.219 12.4464 192.756 15.1212L192.756 15.1235C193.301 17.8012 195.851 19.6036 198.524 19.0125C198.524 19.0124 198.525 19.0122 198.526 19.0121L212.448 15.9809L212.449 15.9808L212.472 15.9758C213.263 15.8039 214.077 15.6272 214.903 15.4288C213.887 20.2747 213.116 25.2608 212.443 29.6173L212.423 29.7441L212.423 29.7475L212.358 30.1583L212.357 30.1619C211.941 32.8611 213.704 35.4595 216.385 35.907Z" fill="#37A61B" stroke="#37A61B" stroke-width="2"/>
<path d="M123.029 97.2202C122.604 97.2745 122.179 97.3273 121.755 97.3816C121.779 92.1988 124.051 82.0784 122.227 77.6965C121.589 76.1598 121.726 75.05 123.47 69.0942C124.122 66.8667 127.736 63.1616 128.987 61.2012C130.849 58.2846 133.841 56.9481 136.128 54.5158C138.479 52.0121 139.47 56.4545 142.748 55.1895C143.46 54.9132 145.377 53.6854 145.885 53.1188C146.36 52.5895 147.755 45.2554 147.976 44.5817C149.447 40.1005 151.931 38.6445 156.464 37.5269C156.889 37.4229 157.295 37.7753 157.273 38.2083C157.028 43.1444 157.14 47.3896 155.593 52.1798C154.273 56.2683 152.152 60.0665 150.794 64.1411C149.154 69.0569 148.639 74.3204 146.616 79.0935C145.405 81.9464 143.683 84.5573 142.355 87.359C141.026 90.1592 140.998 92.1056 141.506 95.1588C141.605 94.5147 123.99 97.259 124.371 97.0355L123.029 97.2202Z" fill="#A36036"/>
<path d="M115.504 165.873C115.569 160.439 121.845 111.099 121.235 99.6935C126.54 98.7885 131.845 97.882 137.15 96.9756C137.637 96.8917 138.15 96.8095 138.621 96.9631C139.087 97.1153 139.447 97.4785 139.772 97.8417C144.408 103.026 145.308 110.432 145.704 117.344C146.828 137.083 145.552 156.962 148.003 176.582C137.663 175.972 129.314 175.679 117.487 176.261C114.352 176.416 114.38 176.078 114.764 173.873C115.227 171.233 115.473 168.554 115.504 165.873Z" fill="#D53229"/>
<path d="M143.753 91.2143C145.512 95.3075 146.518 99.5233 147.579 103.846C137.777 102.308 127.779 103.865 117.978 105.42C118.004 102.786 116.323 95.3633 117.22 94.772C117.808 94.3839 123.208 93.6947 125.258 93.4138C126.977 93.1778 143.45 90.5142 143.753 91.2143Z" fill="#C7E8F1"/>
<path d="M135.084 48.996C132.063 48.2525 128.432 46.7531 126.216 48.9168C124.009 51.0713 125.491 52.5645 125.185 52.8672C124.662 53.3841 123.206 53.0954 122.224 54.0919C120.769 55.5696 121.172 58.3853 122.985 59.4036C121.542 59.4486 120.054 61.4944 119.844 62.9069C119.632 64.321 120.36 65.7443 120.987 67.0311C119.031 69.3191 117.3 71.8492 118.827 74.4367C119.753 76.0044 121.617 76.7153 123.299 77.4402C125.89 78.5578 128.355 79.9626 130.632 81.6203C131.765 82.4445 133.266 83.3634 134.451 82.6153C136.779 81.1469 134.522 77.1484 132.9 74.9365C131.279 72.7262 131.147 73.0723 128.633 71.9454C131.748 71.4456 132.355 71.4658 135.302 72.5865C137.775 73.5271 140.433 73.9928 143.082 73.9524C143.67 73.9431 144.343 73.8655 144.679 73.3874C145.087 72.8069 144.751 72.0106 144.359 71.4208C141.586 67.2484 136.555 65.2445 131.835 63.4812C136.45 65.6869 141.541 66.9147 146.665 67.0575C147.064 67.0684 147.508 67.0575 147.805 66.7921C148.385 66.2721 147.947 65.3268 147.457 64.723C144.754 61.4075 141.021 58.927 136.898 57.7086C139.977 58.6181 143.131 59.2809 146.318 59.6876C147.442 59.832 148.818 59.8335 149.426 58.8867C150.106 57.8281 149.281 56.4606 148.399 55.5587C144.528 51.5975 140.488 50.3278 135.084 48.996Z" fill="#A36036"/>
<path d="M72.3949 115.626C73.463 113.965 75.2933 102.679 75.7089 100.755C76.0101 99.3576 80.2369 93.54 80.7592 81.3815C81.156 72.1304 83.1509 71.7702 85.6149 62.8388C88.038 62.606 90.2134 64.1132 90.9066 66.4229C91.6438 68.8831 91.6093 71.837 91.4117 74.3966C90.8235 81.9636 92.2994 81.6501 92.784 86.2322C92.8577 86.9415 96.0996 84.9951 96.3646 85.6578C96.8179 86.7925 97.8891 87.5407 98.8521 88.3013C104.186 92.5093 107.564 99.055 107.881 105.799C107.955 107.341 107.875 108.896 108.104 110.423C108.537 113.321 111.537 112.367 112.486 115.142C113.435 117.917 114.221 118.987 112.466 121.346C110.014 124.64 101.882 128.37 98.1745 130.178C94.8276 131.811 93.4192 137.115 89.6974 137.387C88.1886 137.498 86.7018 137.053 85.2542 136.612C82.6177 135.81 79.9812 135.007 77.3448 134.205C75.2776 133.576 73.1948 132.941 71.2735 131.956C68.8002 130.686 66.2798 128.778 63.5461 129.318C63.7406 128.593 68.154 122.212 72.3949 115.626Z" fill="#FCE6AE"/>
<path d="M87.3757 121.229C87.2942 120.903 87.3757 120.56 87.4949 120.245C88.116 118.601 89.6546 117.493 91.1665 116.577C96.2246 113.517 102.355 111.073 108.229 110.276C102.301 110.248 96.3705 110.893 90.5894 112.19C89.4633 112.443 88.0831 112.645 87.3318 111.777C86.8127 111.18 86.8315 110.273 87.1154 109.537C87.6094 108.26 88.7497 107.352 89.8679 106.548C93.3293 104.063 97.0684 101.974 100.999 100.303C100.136 100.195 99.2924 100.547 98.4909 100.878C95.1471 102.256 91.6982 103.383 88.1835 104.246C87.2675 104.471 86.1006 104.592 85.5674 103.821C85.0969 103.141 85.4576 102.211 85.9109 101.519C87.3883 99.265 89.6907 97.6926 91.9335 96.1792C93.091 95.3984 94.2625 94.1489 95.6537 93.9921C92.8839 94.7853 90.1126 95.5785 87.3428 96.3701C85.6411 96.8575 83.7826 97.3387 82.1452 96.6728C81.946 96.5921 81.7452 96.4881 81.6245 96.3127C81.4127 96.0053 81.5068 95.5909 81.6292 95.2401C83.0078 91.254 86.7468 88.5268 90.5925 86.7216C96.6606 83.8748 103.516 82.6952 110.197 83.3471C111.303 83.4542 112.663 85.545 112.867 86.6254C113.472 89.8182 111.455 90.5167 109.741 91.715C112.177 91.1361 115.053 92.6852 115.589 95.1082C116.126 97.5296 113.913 101.311 111.455 101.794C113.673 102.394 116.185 104.218 116.396 106.484C116.607 108.749 113.827 111.479 111.758 112.471C114.404 115.161 114.619 118.262 112.464 121.353C112.324 121.553 87.6173 122.19 87.3757 121.229Z" fill="#FCE6AE"/>
<path d="M207.639 108.729C207.122 107.309 207.674 98.5623 207.689 97.052C207.703 95.9577 205.533 90.9022 207.209 81.7193C208.488 74.7344 207.057 74.1322 206.734 67.0417C204.962 66.4627 203.078 67.2279 202.167 68.8407C201.196 70.5574 200.244 72.1888 199.957 74.1353C199.109 79.894 198.533 79.998 197.391 83.3445C197.214 83.8614 195.12 81.8668 194.81 82.3185C194.278 83.0915 193.35 83.4718 192.499 83.88C187.794 86.1385 184.154 90.4722 182.769 95.4626C182.452 96.605 182.245 97.78 181.816 98.8852C180.998 100.981 178.917 99.7653 177.735 101.684C176.552 103.601 175.782 104.27 176.695 106.328C177.968 109.2 183.414 113.346 185.881 115.317C188.106 117.096 188.257 121.298 190.994 122.122C192.104 122.455 193.293 122.37 194.449 122.282C196.558 122.122 198.666 121.96 200.774 121.8C202.429 121.675 204.093 121.546 205.699 121.128C207.765 120.591 209.974 119.585 211.927 120.444C211.905 119.871 209.691 114.362 207.639 108.729Z" fill="#D77843"/>
<path d="M195.065 109.736L195.066 109.738C195.08 109.837 195.085 109.921 195.082 109.99C194.969 109.986 194.821 109.974 194.636 109.953C194.12 109.894 193.388 109.773 192.506 109.604C190.744 109.268 188.421 108.754 186.101 108.212C183.782 107.67 181.472 107.101 179.737 106.658C178.87 106.436 178.149 106.246 177.644 106.106C177.401 106.039 177.212 105.985 177.082 105.945C176.643 104.771 176.59 103.722 176.873 102.808C177.172 101.843 177.865 100.967 179.007 100.23L179.596 99.8506L179.046 99.417C178.417 98.9213 177.712 98.08 177.233 97.1668C176.745 96.2347 176.553 95.3484 176.76 94.7143C176.979 94.0476 177.545 93.4804 178.315 93.0622C179.081 92.6462 179.994 92.4091 180.803 92.3728L180.981 91.4153C180.287 91.1113 179.663 90.2744 179.313 89.2272C178.965 88.1836 178.947 87.098 179.278 86.3965L179.278 86.3963C179.612 85.6885 180.29 85.168 181.106 84.9198C181.921 84.6715 182.824 84.7123 183.559 85.0695L184.147 84.2826C184.004 84.1271 183.859 83.9784 183.719 83.8371C183.7 83.8173 183.68 83.7977 183.661 83.7782C183.541 83.6567 183.426 83.541 183.316 83.4239C183.059 83.1519 182.849 82.8985 182.701 82.6295C182.428 82.136 182.318 81.5146 182.763 80.4918C182.89 80.1999 183.257 79.7305 183.716 79.34C183.939 79.1496 184.165 78.995 184.37 78.8958C184.582 78.7926 184.724 78.7723 184.799 78.7815L184.799 78.7815C189.818 79.3977 194.659 81.3871 198.642 84.4733L198.642 84.4735C201.179 86.4375 203.377 88.9918 203.707 91.9978L203.707 91.9983C203.721 92.1247 203.723 92.2244 203.711 92.2993C203.706 92.3343 203.698 92.3554 203.693 92.3666C203.691 92.372 203.689 92.3749 203.688 92.3761C203.687 92.3773 203.687 92.3779 203.686 92.3783L203.686 92.3786C203.685 92.3792 203.675 92.3877 203.644 92.3991C203.608 92.4121 203.56 92.4239 203.49 92.4358C202.349 92.626 201.193 92.0585 199.978 91.3969L199.978 91.3968C198.269 90.4676 196.561 89.5373 194.853 88.6067C194.624 88.4388 194.371 88.2958 194.09 88.1986L193.687 89.1101L193.688 89.1106C193.896 89.224 194.104 89.3373 194.312 89.4506C194.497 89.5925 194.679 89.7696 194.866 89.9756C195.037 90.1638 195.202 90.3642 195.373 90.5732C195.384 90.5868 195.396 90.6004 195.407 90.614C195.587 90.8332 195.776 91.0623 195.973 91.271C197.405 92.7896 198.784 94.2786 199.463 96.1006L199.464 96.1019C199.563 96.3655 199.626 96.6388 199.624 96.8723C199.622 97.1013 199.56 97.245 199.46 97.3369C199.346 97.4422 199.174 97.4927 198.897 97.454C198.616 97.4148 198.298 97.291 197.991 97.1391C195.531 95.9178 193.165 94.5134 190.92 92.9399C190.903 92.9281 190.886 92.9162 190.869 92.9041C190.357 92.5444 189.694 92.0783 188.901 92.0041L187.061 91.8319L188.563 92.9083C191.189 94.7903 193.603 96.9526 195.744 99.3597C196.449 100.153 197.044 100.921 197.172 101.795L197.172 101.795C197.247 102.3 197.107 102.754 196.827 102.961C196.624 103.111 196.355 103.154 195.992 103.09C195.623 103.025 195.225 102.861 194.832 102.675L194.831 102.675C190.694 100.724 186.331 99.2423 181.856 98.2672L181.576 99.2247C185.755 100.772 189.869 103.579 193.092 106.672C194.069 107.611 194.908 108.59 195.065 109.736ZM177.161 106.147C177.161 106.146 177.161 106.146 177.16 106.146L177.162 106.149L177.161 106.147Z" fill="#D77843" stroke="white"/>
<path d="M55.3749 138.026C55.5443 137.739 55.7341 137.433 56.043 137.304C56.3112 137.193 56.6171 137.235 56.9041 137.281C67.7071 139.009 78.2263 142.596 89.1517 143.166C89.4215 143.179 89.7022 143.197 89.9312 143.333C90.5946 143.732 90.361 144.727 90.0457 145.43C85.4299 155.692 81.8132 164.538 77.1975 174.801C77.0736 175.076 76.9387 175.365 76.6909 175.538C76.4305 175.72 76.0917 175.743 75.7734 175.757C71.1905 175.968 66.5136 175.673 59.6519 175.383C54.2645 175.153 33.935 175.576 32.8905 174.315C31.239 172.321 34.5718 167.513 35.6869 166C39.0182 161.478 42.0781 158.296 45.2902 153.685C48.841 148.587 52.2052 143.364 55.3749 138.026Z" fill="#651A03"/>
<path d="M176.618 116.191C175.743 113.383 174.065 110.884 173.038 108.128C170.939 102.502 168.846 102.074 172.243 92.5016C174.708 85.5586 172.865 85.4949 175.619 78.659C176.046 77.5973 176.441 76.2515 175.641 75.4273C175.345 75.1215 174.931 74.957 174.523 74.8266C169.299 73.158 164.526 77.9434 163.094 83.1883C162.781 84.3385 162.654 85.5865 161.941 86.5458C161.466 87.1853 157.457 92.857 156.703 94.1702C155.07 97.0154 141.563 94.1066 136.538 97.0899C134.553 98.268 133.141 100.202 132.031 102.212C129.302 107.151 128.078 112.8 127.779 118.422C127.661 120.629 127.686 122.886 128.387 124.985C129.176 127.35 130.768 129.362 132.434 131.231C135.373 134.529 139.121 137.027 142.639 139.715C145.569 141.952 148.649 144.665 152.465 144.749C156.659 144.84 158.88 142.307 161.322 139.377C165.224 134.697 171.805 133.944 175.108 128.466C177.304 124.825 177.881 120.246 176.618 116.191Z" fill="#F58B80"/>
<path d="M134.768 136.344C140.532 137.539 146.609 137.222 152.215 135.436C152.807 135.246 153.512 134.879 153.469 134.264C153.443 133.877 153.116 133.587 152.806 133.353C148.866 130.371 143.842 129.258 138.993 128.223C137.715 127.951 136.3 127.388 135.022 127.116C140.006 127.617 145.039 128.119 150.013 127.526C150.572 127.459 151.156 127.369 151.606 127.032C152.486 126.376 152.486 124.991 151.898 124.069C151.31 123.147 150.303 122.582 149.326 122.077C144.896 119.793 140.216 117.981 135.397 116.688C134.446 116.432 134.385 115.876 133.684 115.19C133.563 115.249 133.442 115.307 133.322 115.366C141.404 116.499 149.904 117.592 157.522 114.686C158.116 114.458 158.795 114.088 158.836 113.458C158.868 112.992 158.526 112.59 158.181 112.274C155.847 110.124 152.588 109.335 149.482 108.624C144.848 107.564 140.859 106.512 136.225 105.452C139.89 105.323 143.555 105.193 147.222 105.062C151.506 104.91 156.073 104.665 159.537 102.169C159.71 102.045 159.889 101.9 159.94 101.695C160 101.467 159.882 101.234 159.757 101.033C158.4 98.8549 155.819 97.7373 153.3 97.1568C150.594 96.5312 148.814 94.9915 146.04 94.8393C142.004 94.6189 139.374 94.7757 134.473 95.4214C132.98 95.4369 129.915 97.4548 129.401 98.8425C128.886 100.229 129.038 101.778 129.437 103.203C129.678 104.07 130.009 104.988 129.729 105.844C129.184 107.501 126.835 107.775 125.8 109.185C124.465 111.002 125.911 113.472 127.192 115.328C127.401 115.631 127.614 115.962 127.608 116.328C127.599 116.784 127.257 117.154 126.974 117.514C124.67 120.443 126.007 125.405 129.478 126.812C127.302 128.64 127.014 132.271 128.875 134.413C130.735 136.555 134.975 136.072 134.768 136.344Z" fill="#F58B80"/>
<path d="M175.54 131.868C177.699 139.615 179.39 147.491 180.601 155.438C171.026 158.353 161.181 160.402 151.231 161.552C151.065 154.084 148.524 146.685 144.059 140.662C153.047 139.534 161.606 135.295 167.908 128.852C168.808 127.93 172.825 122.595 174.054 123.36C174.437 123.597 174.36 126.974 174.47 127.584C174.73 129.032 175.145 130.45 175.54 131.868Z" fill="#F58B80"/>
<path d="M150.693 166.688C160.245 165.856 169.796 165.024 179.348 164.192C180.207 164.117 181.214 164.1 181.762 164.761C182.061 165.125 182.144 165.612 182.215 166.076C182.943 170.8 183.346 172.963 184.073 177.687C183.99 177.145 154.042 177.611 151.725 177.17C150.453 176.928 150.784 173.892 150.72 172.644C150.618 170.66 150.609 168.672 150.693 166.688Z" fill="#1D6ABB"/>
<path d="M180.271 154.54C180.486 154.479 180.72 154.417 180.932 154.49C181.313 154.624 181.421 155.095 181.471 155.493C181.936 159.187 182.4 162.883 182.864 166.577C171.837 167.477 160.817 168.609 149.918 170.501C149.633 170.551 149.313 170.593 149.079 170.422C148.849 170.254 148.794 169.941 148.756 169.658C148.424 167.131 148.063 160.604 148.063 159.44C148.063 159.091 174.539 156.163 180.271 154.54Z" fill="#C7E8F1"/>
<path d="M189.92 130.782C189.938 130.478 189.971 130.146 190.186 129.928C190.367 129.745 190.636 129.685 190.889 129.634C198.306 128.128 205.833 127.153 213.391 126.719C215.025 142.806 216.637 159.523 218.78 175.551C210.627 176.425 194.6 178.267 192.771 176.974C191.138 175.819 189.339 139.959 189.92 130.782Z" fill="#709C28"/>
<path d="M47.8002 112.487C47.6449 112.903 47.8002 113.41 48.1609 113.674C49.0047 110.711 50.1136 107.419 52.8959 106.043C53.8573 105.568 54.9317 105.377 55.9558 105.056C57.8865 104.452 59.8047 103.583 61.2194 102.15C62.3125 101.042 64.4534 99.4341 62.6889 97.396C62.3988 97.0623 60.581 96.6867 60.1403 96.6199C58.3069 96.3467 56.6538 97.0173 54.7592 97.067C57.4301 94.1768 62.4882 96.4833 64.8455 93.9036C66.7087 91.8671 63.9829 89.8104 63.6692 89.7328C59.9741 88.803 56.9502 89.3975 53.1531 89.7359C57.1792 88.4181 63.4433 88.7627 64.8423 84.7999C65.592 82.6796 61.6522 81.5433 59.3969 81.2872C57.1431 81.0327 55.7802 80.4801 53.5735 81.0016C55.7347 79.763 56.9972 79.6046 59.1601 78.3675C60.9559 77.34 63.1061 77.3182 62.2859 73.669C61.7087 71.1063 52.9853 72.0764 46.6129 72.3667C48.404 68.3154 48.6456 64.8028 49.1098 60.4038C49.5725 56.0064 48.4778 51.2179 45.2061 48.2066C44.3482 47.4165 42.9994 46.7599 42.0678 47.4646C41.3714 47.9893 41.3149 48.9858 41.2977 49.8519C41.1393 57.6673 39.0972 65.4407 35.388 72.3419C34.3983 74.1843 33.2879 75.9756 32.5492 77.9298C31.7634 80.0036 31.4168 82.2123 31.1204 84.4087C30.4977 89.0389 30.0806 93.6971 29.872 98.3631C29.8343 99.2168 29.988 99.8097 30.435 100.541C30.882 101.273 31.5737 101.821 32.2528 102.349C36.5455 105.677 40.9777 108.831 45.5339 111.799C46.5314 112.449 46.6302 112.244 47.8002 112.487Z" fill="#F58B80"/>
<path d="M16.223 145.893C19.2626 138.423 24.6077 123.474 25.3087 120.75C25.9518 118.256 26.5979 115.746 26.7736 113.178C26.9493 110.628 26.7156 107.854 28.1757 105.746C34.1309 110.01 40.3496 113.913 46.7862 117.425C46.3173 122.091 45.9675 127.015 45.141 131.633C42.3963 146.961 32.4825 166.729 28.2808 172.668C26.5054 175.177 2.98898 174.511 4.16527 170.824C6.44257 163.689 13.3921 152.85 16.223 145.893Z" fill="#E0A100"/>
<path d="M41.8048 105.2C43.0219 105.788 46.9742 108.391 49.5887 110.338C50.9626 111.361 51.3767 113.222 50.5878 114.734L47.7616 120.145C47.6518 120.354 47.5216 120.581 47.2989 120.662C47.0558 120.75 46.7923 120.635 46.5602 120.524C40.6866 117.694 34.8129 114.864 28.9393 112.033C27.1247 111.159 25.296 110.281 23.3857 109.658C22.4791 109.363 21.9992 108.395 22.3192 107.505C23.0265 105.542 24.0663 102.496 24.2969 102.08C25.103 100.63 26.1539 99.6572 27.8791 99.5501C32.1796 99.2847 38.0517 103.389 41.8048 105.2Z" fill="#C7E8F1"/>
<path d="M111.313 112.227C107.907 112.989 106.668 113.651 103.388 114.812C100.592 115.802 96.7804 117.497 94.2271 115.622C91.4981 113.62 92.7559 109.706 95.2544 107.864C95.8331 107.437 94.5502 107.422 94.2239 107.662C91.6581 109.556 89.4498 115.988 93.6546 117.224C96.0323 117.922 99.5596 116.752 101.812 116.047C105.711 114.827 107.111 113.609 111.117 112.712C111.898 112.538 111.313 112.227 111.313 112.227Z" fill="white"/>
<path d="M88.4449 96.2146C89.916 95.5022 91.3966 94.827 92.7877 96.0206C93.6503 96.761 94.1083 97.7932 94.4408 98.8487C94.5443 99.1778 95.5199 98.7385 95.6673 98.6283C95.7677 98.5523 95.8696 98.4778 95.97 98.4017C96.2335 98.2046 95.0556 98.3132 94.8047 98.501C94.7043 98.5756 94.6024 98.6516 94.502 98.7261C94.9113 98.6532 95.3191 98.5802 95.7285 98.5073C95.1889 96.789 94.1601 95.0862 92.2153 94.7556C90.57 94.4746 89.1177 95.3656 87.703 96.0517C86.9423 96.4211 88.1406 96.3621 88.4449 96.2146Z" fill="white"/>
<path d="M89.3643 103.993C90.9797 103.315 93.4138 103.116 95.0559 103.854C95.5217 104.063 95.9531 104.343 96.2965 104.723C96.6839 105.153 96.72 105.845 97.0635 106.219C97.4964 106.689 98.061 106.845 98.6115 106.264C99.1337 105.715 97.8822 105.704 97.5716 106.03C97.5324 106.072 97.4932 106.114 97.4524 106.155C97.7567 106.075 98.061 105.994 98.3637 105.913C98.5033 105.943 97.2752 103.999 97.1544 103.895C96.4675 103.303 95.5986 102.984 94.7125 102.821C92.7943 102.471 90.6394 102.682 88.8451 103.434C88.0217 103.781 88.7683 104.242 89.3643 103.993Z" fill="white"/>
<path d="M92.5986 114.232C93.4392 112.673 96.3486 112.63 97.8025 113.348C98.8408 113.861 99.4415 114.79 99.7285 115.863C99.7959 116.114 101.085 115.779 101.016 115.521C100.373 113.116 98.3138 112.372 95.9941 112.498C94.2846 112.591 92.2222 112.813 91.3313 114.467C91.2592 114.603 92.4308 114.547 92.5986 114.232Z" fill="white"/>
<path d="M95.0586 121.822C97.3594 119.894 100.201 121.837 100.818 124.252C100.895 124.557 102.185 124.227 102.105 123.911C101.138 120.108 96.616 119.613 93.887 121.899C93.6 122.14 94.8092 122.031 95.0586 121.822Z" fill="white"/>
<path d="M105.882 84.5824C107.802 85.5137 108.857 87.9911 109.127 89.9655C109.182 90.3706 110.478 90.085 110.415 89.624C110.128 87.5145 108.947 84.9674 106.913 83.9802C106.55 83.8032 105.366 84.331 105.882 84.5824Z" fill="white"/>
<path d="M110.387 94.5287C111.708 96.2346 113.032 98.046 112.676 100.312C112.585 100.887 113.893 100.691 113.973 100.185C114.351 97.7744 112.986 95.8201 111.575 93.9978C111.263 93.5943 110.025 94.0615 110.387 94.5287Z" fill="white"/>
<path d="M111.729 106.628C112.856 107.668 113.252 109.199 112.891 110.663C112.737 111.287 114.056 111.142 114.197 110.57C114.626 108.825 114.033 107.094 112.718 105.883C112.293 105.491 111.178 106.122 111.729 106.628Z" fill="white"/>
<path d="M100.657 101.784C101.228 102.913 101.465 104.102 101.366 105.361C101.353 105.524 102.625 105.393 102.654 105.019C102.752 103.762 102.517 102.571 101.946 101.443C101.793 101.139 100.558 101.589 100.657 101.784Z" fill="white"/>
<path d="M98.9603 94.4699C98.9886 95.3003 99.779 96.449 99.0686 97.1723C98.8678 97.3772 99.2474 97.3772 99.3697 97.3741C99.6285 97.3648 100.043 97.2639 100.232 97.0714C101.096 96.1913 100.282 95.1451 100.25 94.1284C100.242 93.922 98.9494 94.1191 98.9603 94.4699Z" fill="white"/>
<path d="M104.182 111.463C104.416 112.365 104.684 113.256 104.985 114.139C105.087 114.442 106.365 114.07 106.273 113.798C105.971 112.915 105.705 112.024 105.47 111.122C105.394 110.833 104.103 111.164 104.182 111.463Z" fill="white"/>
<path d="M153.86 35.8252C153.17 38.3801 151.012 41.0251 152.847 43.608C154.502 45.9363 157.591 46.0915 160.176 45.66C160.818 45.5544 161.216 44.7349 160.333 44.8823C157.706 45.3201 154.166 44.8932 153.47 41.8012C152.999 39.715 154.624 37.6459 155.154 35.6855C155.291 35.1748 153.987 35.3518 153.86 35.8252Z" fill="white"/>
<path d="M86.1146 62.1611C85.9656 62.4265 86.9412 63.4432 87.1357 64.047C87.4337 64.9722 87.4258 65.9795 87.2266 66.9202C86.9725 68.1216 86.6777 68.7844 85.5233 69.3292C84.5651 69.7809 84.2733 69.725 83.3229 69.6893C82.8492 69.6707 82.4242 69.6971 81.9506 69.7483C81.5992 69.7871 80.5594 70.38 81.4 70.2885C83.1253 70.1006 84.9117 70.6703 86.535 69.8243C87.9073 69.1072 88.4751 67.3936 88.6225 65.9547C88.7621 64.5872 88.3966 62.1021 86.7702 61.6442C86.077 61.4471 85.1893 61.7544 84.8411 62.3784C84.7344 62.5678 85.928 62.4933 86.1146 62.1611Z" fill="white"/>
<path d="M203.907 64.4351C202.144 67.4774 200.612 71.3828 204.046 73.902C206.437 75.656 209.62 75.5877 212.255 74.4546C213.087 74.0976 212.313 73.8399 211.783 74.0681C208.904 75.3052 204.84 74.4623 203.543 71.3517C202.527 68.9101 203.974 66.3257 205.185 64.2364C205.321 63.9989 204.109 64.0858 203.907 64.4351Z" fill="white"/>
<path d="M65.5179 133.288C59.9344 140.703 54.3494 148.12 48.7659 155.535C46.2847 158.832 43.8035 162.127 41.3224 165.422C39.9171 167.288 34.1972 177.458 31.9356 177.973C32.6962 177.8 32.5833 177.368 31.8195 177.543C31.7113 177.567 31.6031 177.592 31.4948 177.616C31.3615 177.647 30.8675 177.795 30.9098 178.003C30.9381 178.149 30.9663 178.295 30.9961 178.442C31.051 178.725 31.8901 178.439 32.0155 178.371C34.2332 177.155 35.4174 174.743 36.9089 172.761C40.3217 168.229 43.733 163.698 47.1458 159.165C53.6593 150.513 60.1744 141.861 66.6879 133.209C66.9498 132.863 65.7124 133.029 65.5179 133.288Z" fill="white"/>
<path d="M75.7195 137.528C71.535 144.909 67.1529 152.17 62.4917 159.267C60.4198 162.418 58.2978 165.539 56.1319 168.628C54.518 170.925 52.8696 173.198 51.204 175.459C50.6927 176.153 46.3671 182.759 45.9169 182.812C46.6039 182.733 46.9333 181.848 46.0503 181.951C45.9483 181.963 45.8464 181.974 45.7429 181.986C45.4307 182.022 44.99 182.211 45.0324 182.589C45.0481 182.728 45.0637 182.868 45.0779 183.008C45.1186 183.377 45.8087 183.276 45.9985 183.177C51.3263 180.426 56.5114 170.003 59.769 165.246C65.9029 156.293 71.593 147.068 76.9412 137.637C77.2769 137.042 75.9751 137.078 75.7195 137.528Z" fill="white"/>
<path d="M87.9134 138.784C79.328 156.261 70.7426 173.739 62.1573 191.216C62.002 191.533 63.2536 191.415 63.4402 191.035C72.024 173.557 80.6094 156.081 89.1947 138.603C89.3516 138.286 88.0984 138.404 87.9134 138.784Z" fill="white"/>
<path d="M70.1903 136.124C60.5714 153.77 48.5622 169.461 35.7218 184.904C35.3752 185.321 36.6597 185.227 36.9169 184.916C49.7573 169.472 61.7665 153.782 71.3854 136.137C71.6646 135.623 70.3832 135.769 70.1903 136.124Z" fill="white"/>
<path d="M81.5145 137.54C73.1079 152.711 64.2167 167.6 54.8409 182.204C54.4598 182.797 55.771 182.821 56.0721 182.35C65.4495 167.746 74.3391 152.857 82.7473 137.685C83.0939 137.058 81.7874 137.046 81.5145 137.54Z" fill="white"/>
<path d="M173.333 73.1859C170.661 75.5158 167.963 80.0047 171.141 83.1324C172.869 84.8352 175.739 84.5853 177.524 83.1355C177.759 82.9446 176.599 83.0719 176.367 83.2613C173.454 85.6237 171.028 81.4017 171.042 79.1976C171.058 76.6815 172.672 74.6481 174.491 73.0617C174.726 72.8553 173.559 72.9888 173.333 73.1859Z" fill="white"/>
<path d="M194.237 126.081C192.221 146.437 196.418 166.538 197.482 186.817C197.494 187.053 198.79 186.839 198.771 186.476C197.706 166.195 193.509 146.095 195.524 125.739C195.542 125.559 194.274 125.69 194.237 126.081Z" fill="white"/>
<path d="M201.025 125.64C199.414 135.652 200.84 145.339 201.98 155.306C203.255 166.423 202.454 177.72 205.012 188.671C205.156 189.293 206.447 188.959 206.299 188.329C203.953 178.28 204.61 167.992 203.581 157.793C202.491 146.983 200.589 136.403 202.335 125.558C202.44 124.887 201.122 125.033 201.025 125.64Z" fill="white"/>
<path d="M206.731 124.04C204.99 128.437 206.138 132.716 206.767 137.292C207.504 142.658 208.241 148.024 208.981 153.39C210.277 162.804 209.944 174.831 213.873 183.522C214.08 183.98 215.347 183.59 215.161 183.18C211.582 175.258 211.845 164.509 210.672 155.976C209.999 151.098 209.329 146.221 208.658 141.342C207.91 135.902 205.975 129.064 208.021 123.889C208.194 123.456 206.903 123.602 206.731 124.04Z" fill="white"/>
<path d="M183.689 137.129C196.25 136.189 208.711 134.627 221.117 132.457C221.929 132.314 221.688 131.487 220.891 131.627C208.603 133.775 196.256 135.305 183.814 136.237C183.105 136.289 182.807 137.194 183.689 137.129Z" fill="white"/>
<path d="M184.103 145.096C192.111 143.734 200.104 142.961 208.219 142.632C213.026 142.438 217.301 142.245 221.724 140.246C222.524 139.883 221.814 139.179 221.15 139.481C214.687 142.402 207.137 141.57 200.193 142.115C194.713 142.545 189.279 143.287 183.863 144.209C183.045 144.348 183.302 145.233 184.103 145.096Z" fill="white"/>
<path d="M184.246 151.171C184.905 154.054 218.577 149.709 222.487 149.31C222.848 149.273 223.877 148.671 223.034 148.758C219.703 149.096 186.069 153.169 185.536 150.83C185.465 150.524 184.171 150.839 184.246 151.171Z" fill="white"/>
<path d="M187.031 159.746C198.83 159.302 210.573 158.343 222.286 156.859C222.9 156.781 223.361 156.058 222.466 156.171C210.861 157.641 199.229 158.599 187.536 159.038C187.069 159.057 186.169 159.779 187.031 159.746Z" fill="white"/>
<path d="M186.622 167.716C198.716 166.798 210.799 165.761 222.874 164.606C223.238 164.571 224.264 163.968 223.42 164.049C211.346 165.206 199.262 166.242 187.168 167.158C186.801 167.186 185.775 167.779 186.622 167.716Z" fill="white"/>
<path d="M186.433 174.238C199.648 174.721 212.65 173.777 225.657 171.383C226.265 171.272 226.719 170.51 225.832 170.674C212.953 173.044 200.029 173.99 186.933 173.511C186.441 173.494 185.564 174.207 186.433 174.238Z" fill="white"/>
<path d="M40.7326 47.0001C40.9945 46.893 42.2696 48.6998 42.45 49.0071C42.9519 49.8577 43.3032 50.8387 43.1715 51.8461C42.8421 54.3421 40.4629 54.6851 38.3659 54.7705C37.7009 54.7969 37.3182 55.573 38.2059 55.5357C40.913 55.427 44.2866 54.7192 44.4764 51.441C44.5846 49.5768 42.6633 45.4215 40.2072 46.4149C39.3791 46.7486 40.1272 47.2454 40.7326 47.0001Z" fill="white"/>
<path d="M99.9889 86.4564C95.886 88.2539 89.1105 90.9594 87.5155 95.7153C86.4411 98.9222 88.8078 100.068 91.7658 99.8147C97.5767 99.3195 104.064 95.4189 108.954 92.6125C113.215 90.1662 117.102 87.945 117.426 82.6442C117.44 82.4207 116.164 82.5805 116.139 82.9857C115.88 87.1906 113.17 89.4258 109.804 91.4421C105.739 93.876 100.163 97.5407 95.4358 98.2982C93.2809 98.6428 88.2918 99.377 88.571 96.1453C88.6432 95.2993 89.5528 94.3618 89.959 93.8046C92.572 90.2329 96.7847 88.4044 100.743 86.6706C101.52 86.3307 100.321 86.3105 99.9889 86.4564Z" fill="white"/>
<path d="M114.881 99.5946C110.565 102.008 105.872 103.626 101.165 105.117C99.4604 105.657 97.6003 106.477 95.8296 106.733C89.6674 107.626 87.3681 103.404 92.3807 99.4316C92.9359 98.9907 91.6577 99.0327 91.3597 99.2686C87.5171 102.314 86.8239 108.992 93.2135 108.046C100.604 106.955 109.186 103.539 115.665 99.9174C116.416 99.4968 115.27 99.3772 114.881 99.5946Z" fill="white"/>
<path d="M114.331 117.503C111.475 119.085 108.774 121.03 105.825 122.438C102.089 124.221 94.006 127.673 94.831 121.336C95.0663 119.528 96.724 117.879 98.1027 116.968C98.6375 116.616 97.3561 116.754 97.113 116.915C93.1779 119.512 91.4433 125.476 97.7717 125.215C104.368 124.945 109.804 120.614 115.322 117.556C115.869 117.254 114.582 117.364 114.331 117.503Z" fill="white"/>
<path d="M107.389 82.3377C109.171 83.7285 110.375 85.5943 110.899 87.7782C110.987 88.1492 112.279 87.8264 112.187 87.4368C111.653 85.2109 110.41 83.2846 108.593 81.8674C108.273 81.6175 107.102 82.1142 107.389 82.3377Z" fill="white"/>
<path d="M88.0369 147.568C77.0974 143.949 65.9807 140.854 54.7385 138.3C53.0321 137.914 52.2196 135.984 53.1591 134.521L59.4264 124.749C59.8122 124.149 60.3266 123.475 61.0465 123.491C61.0606 123.697 60.7281 123.689 60.8536 123.523C60.9791 123.357 61.2394 123.411 61.4355 123.483C72.4503 127.501 83.3726 131.795 94.5285 135.41C95.7958 135.82 96.2114 137.367 95.3127 138.342C93.2503 140.576 91.7681 143.322 90.7722 146.226C90.3864 147.346 89.1709 147.944 88.0369 147.568Z" fill="#C7E8F1"/>
<path d="M215.908 119.605C215.836 122.368 216.551 126.011 216.813 128.727C212.418 128.941 207.975 129.107 203.505 129.629C198.202 130.25 192.898 130.869 187.594 131.488C187.484 131.502 187.361 131.512 187.275 131.443C187.194 131.378 187.173 131.266 187.158 131.166C186.725 128.317 186.293 125.469 185.86 122.619C185.826 122.392 185.799 122.135 185.945 121.958C186.075 121.801 186.296 121.759 186.499 121.728C196.05 120.261 205.396 118.808 215.112 118.708C215.312 118.706 215.528 118.709 215.685 118.83C215.908 119.002 215.914 119.325 215.908 119.605Z" fill="#C7E8F1"/>
</svg>
