<svg width="124" height="65" viewBox="0 0 124 65" fill="none" xmlns="http://www.w3.org/2000/svg">
<path d="M25.201 10.6364C24.6385 4.14205 19.8828 0.460226 13.2862 0.460226C6.2294 0.460226 0.65554 5.16477 0.65554 13.9091C0.65554 22.6151 6.07599 27.358 13.2862 27.358C20.9567 27.358 24.843 22.0398 25.201 17.5909L17.9908 17.5398C17.6328 19.777 16.0476 21.1705 13.4396 21.1705C9.97514 21.1705 7.96804 18.7159 7.96804 13.9091C7.96804 9.35795 9.91122 6.64773 13.4908 6.64773C16.2266 6.64773 17.7862 8.25852 17.9908 10.6364H25.201ZM28.5281 27H35.5849V16.7727C35.5849 14.5227 37.1317 13.0398 39.2156 13.0398C39.9442 13.0398 41.1204 13.1548 41.8235 13.3977V7.37642C41.261 7.21023 40.6474 7.10795 40.0337 7.10795C37.9371 7.10795 36.3008 8.33523 35.5849 11.0966H35.3803V7.36364H28.5281V27ZM49.0305 34.3636C53.9652 34.3636 56.2791 31.8835 57.3658 28.6364L64.5249 7.36364H57.1101L53.8885 20.9659H53.6839L50.5135 7.36364H43.1499L50.0533 27.8693L49.8999 28.2273C49.4268 29.3139 48.0589 29.2756 46.3203 28.6619L44.7862 33.6733C45.8857 34.108 47.407 34.3636 49.0305 34.3636ZM66.532 34.3636H73.5888V23.7784H73.6911C74.5092 25.7727 76.4013 27.2557 79.1626 27.2557C83.3558 27.2557 86.8842 23.983 86.8842 17.1818C86.8842 10.0739 83.1001 7.10795 79.2138 7.10795C76.299 7.10795 74.4581 8.79545 73.6911 10.7898H73.5376V7.36364H66.532V34.3636ZM73.4354 17.1818C73.4354 14.267 74.6115 12.5284 76.5547 12.5284C78.4979 12.5284 79.6229 14.267 79.6229 17.1818C79.6229 20.0966 78.4979 21.8352 76.5547 21.8352C74.6115 21.8352 73.4354 20.0455 73.4354 17.1818ZM101.551 7.36364H98.1758V2.65909H91.119V7.36364H88.6133V12.4773H91.119V21.3494C91.0678 25.4659 93.6119 27.5497 98.4826 27.2812C100.081 27.1918 101.27 26.8594 101.909 26.6676L100.886 21.7074C100.618 21.7713 99.9272 21.9119 99.5053 21.9119C98.5849 21.9119 98.1758 21.5028 98.1758 20.6847V12.4773H101.551V7.36364ZM113.68 27.358C120.072 27.358 123.856 23.267 123.856 17.233C123.856 11.1989 120.072 7.10795 113.68 7.10795C107.288 7.10795 103.504 11.1989 103.504 17.233C103.504 23.267 107.288 27.358 113.68 27.358ZM113.731 22.142C111.839 22.142 110.714 20.2628 110.714 17.1818C110.714 14.1009 111.839 12.2216 113.731 12.2216C115.521 12.2216 116.646 14.1009 116.646 17.1818C116.646 20.2628 115.521 22.142 113.731 22.142ZM2.4502 57H9.16326V48.8381H11.4814L15.828 57H23.1207L18.0979 47.7756C20.73 46.5078 22.2996 44.1051 22.2996 40.6761C22.2996 35.4119 18.6171 32.2727 13.1235 32.2727H2.4502V57ZM9.16326 43.6222V37.6335H11.5297C13.8841 37.6335 15.2968 38.5511 15.2968 40.6761C15.2968 42.7891 13.8841 43.6222 11.5297 43.6222H9.16326ZM30.4253 57.2898C32.8401 57.2898 34.6633 56.4688 35.7861 54.392H35.931V57H42.1611V44.2983C42.1611 40.8693 38.9133 38.2131 33.6128 38.2131C28.0709 38.2131 25.3422 41.1108 25.1128 44.4915H31.2464C31.4033 43.3445 32.2485 42.8011 33.5162 42.8011C34.6753 42.8011 35.4964 43.3324 35.4964 44.2983V44.3466C35.4964 45.4212 34.3131 45.7592 31.1981 45.9886C27.3706 46.2663 24.3884 47.8118 24.3884 51.8807C24.3884 55.5753 26.8756 57.2898 30.4253 57.2898ZM32.5986 53.0881C31.4637 53.0881 30.6668 52.5327 30.6668 51.4943C30.6668 50.5405 31.343 49.804 32.8884 49.5625C33.9509 49.3935 34.8444 49.1761 35.5447 48.8864V50.4318C35.5447 52.1222 34.1079 53.0881 32.5986 53.0881ZM52.0104 46.5682C52.0225 44.733 53.0608 43.6222 54.7149 43.6222C56.3932 43.6222 57.3833 44.733 57.3712 46.5682V57H64.036V45.1676C64.048 41.1349 61.5004 38.2131 57.5644 38.2131C54.8357 38.2131 52.6745 39.6378 51.8655 41.9801H51.6723V38.4545H45.3456V57H52.0104V46.5682ZM76.2607 64.3409C82.1286 64.3409 86.0164 61.6605 86.0164 56.9517V38.4545H79.3517V41.6903H79.2068C78.4823 39.8068 76.7437 38.2131 73.9909 38.2131C70.3204 38.2131 66.7465 41.0142 66.7465 47.7273C66.7465 54.1506 70.0789 56.7585 74.0392 56.7585C76.5505 56.7585 78.5306 55.696 79.2551 53.8125H79.4482V56.9517C79.4482 59.1371 78.1805 59.8494 76.4539 59.8494C74.9205 59.8494 73.7977 59.3906 73.6045 58.2074H67.1812C67.4347 61.7812 70.6826 64.3409 76.2607 64.3409ZM76.5022 52.0256C74.667 52.0256 73.6045 50.4801 73.6045 47.7273C73.6045 44.9744 74.667 43.3324 76.5022 43.3324C78.3374 43.3324 79.4482 44.9744 79.4482 47.7273C79.4482 50.4318 78.3374 52.0256 76.5022 52.0256ZM98.2925 57.3381C103.436 57.3381 106.744 54.875 107.372 51.0114H101.287C100.9 52.0618 99.8018 52.6534 98.4374 52.6534C96.4573 52.6534 95.2982 51.3494 95.2982 49.5625V49.2727H107.372V47.7273C107.372 41.8232 103.75 38.2131 98.1476 38.2131C92.4005 38.2131 88.73 42.0284 88.73 47.7756C88.73 53.7763 92.3522 57.3381 98.2925 57.3381ZM95.2982 45.6023C95.3344 43.9964 96.6626 42.8977 98.2925 42.8977C99.9466 42.8977 101.202 44.0085 101.239 45.6023H95.2982ZM110.092 57H116.756V47.3409C116.756 45.2159 118.217 43.8153 120.185 43.8153C120.874 43.8153 121.984 43.924 122.649 44.1534V38.4666C122.117 38.3097 121.538 38.2131 120.958 38.2131C118.978 38.2131 117.433 39.3722 116.756 41.9801H116.563V38.4545H110.092V57Z" fill="#2A6FAF"/>
</svg>
