<svg width="258" height="123" viewBox="0 0 258 123" fill="none" xmlns="http://www.w3.org/2000/svg">
<path d="M57.4464 21.1818C56.3526 8.55398 47.1055 1.39488 34.2788 1.39488C20.5572 1.39488 9.71911 10.5426 9.71911 27.5455C9.71911 44.4737 20.2589 53.696 34.2788 53.696C49.1935 53.696 56.7504 43.3551 57.4464 34.7045L43.4265 34.6051C42.7305 38.9553 39.6481 41.6648 34.5771 41.6648C27.8406 41.6648 23.9379 36.892 23.9379 27.5455C23.9379 18.696 27.7163 13.4261 34.6765 13.4261C39.9961 13.4261 43.0288 16.5582 43.4265 21.1818H57.4464ZM63.9157 53H77.6373V33.1136C77.6373 28.7386 80.6451 25.8551 84.6969 25.8551C86.1138 25.8551 88.4007 26.0788 89.7679 26.5511V14.843C88.6742 14.5199 87.481 14.321 86.2878 14.321C82.2111 14.321 79.0293 16.7074 77.6373 22.0767H77.2395V14.8182H63.9157V53ZM103.782 67.3182C113.377 67.3182 117.876 62.4957 119.989 56.1818L133.909 14.8182H119.492L113.228 41.267H112.83L106.665 14.8182H92.3469L105.77 54.6903L105.472 55.3864C104.552 57.4993 101.892 57.4247 98.5117 56.2315L95.5288 65.9759C97.6665 66.821 100.625 67.3182 103.782 67.3182ZM137.812 67.3182H151.534V46.7358H151.733C153.324 50.6136 157.002 53.4972 162.372 53.4972C170.525 53.4972 177.386 47.1335 177.386 33.9091C177.386 20.0881 170.028 14.321 162.471 14.321C156.804 14.321 153.224 17.6023 151.733 21.4801H151.434V14.8182H137.812V67.3182ZM151.235 33.9091C151.235 28.2415 153.522 24.8608 157.301 24.8608C161.079 24.8608 163.267 28.2415 163.267 33.9091C163.267 39.5767 161.079 42.9574 157.301 42.9574C153.522 42.9574 151.235 39.4773 151.235 33.9091ZM205.904 14.8182H199.342V5.67045H185.62V14.8182H180.748V24.7614H185.62V42.0128C185.521 50.017 190.468 54.0689 199.938 53.5469C203.046 53.3729 205.357 52.7266 206.6 52.3537L204.612 42.7088C204.09 42.8331 202.747 43.1065 201.927 43.1065C200.137 43.1065 199.342 42.3111 199.342 40.7202V24.7614H205.904V14.8182ZM229.488 53.696C241.917 53.696 249.275 45.7415 249.275 34.0085C249.275 22.2756 241.917 14.321 229.488 14.321C217.059 14.321 209.701 22.2756 209.701 34.0085C209.701 45.7415 217.059 53.696 229.488 53.696ZM229.588 43.554C225.909 43.554 223.721 39.8999 223.721 33.9091C223.721 27.9183 225.909 24.2642 229.588 24.2642C233.068 24.2642 235.255 27.9183 235.255 33.9091C235.255 39.8999 233.068 43.554 229.588 43.554ZM16.9062 108H29.5426V92.6364H33.9062L42.0881 108H55.8153L46.3608 90.6364C51.3153 88.25 54.2699 83.7273 54.2699 77.2727C54.2699 67.3636 47.3381 61.4545 36.9972 61.4545H16.9062V108ZM29.5426 82.8182V71.5455H33.9972C38.429 71.5455 41.0881 73.2727 41.0881 77.2727C41.0881 81.25 38.429 82.8182 33.9972 82.8182H29.5426ZM69.5653 108.545C74.1108 108.545 77.5426 107 79.6562 103.091H79.929V108H91.6562V84.0909C91.6562 77.6364 85.5426 72.6364 75.5653 72.6364C65.1335 72.6364 59.9972 78.0909 59.5653 84.4545H71.1108C71.4062 82.2955 72.9972 81.2727 75.3835 81.2727C77.5653 81.2727 79.1108 82.2727 79.1108 84.0909V84.1818C79.1108 86.2045 76.8835 86.8409 71.0199 87.2727C63.8153 87.7955 58.2017 90.7045 58.2017 98.3636C58.2017 105.318 62.8835 108.545 69.5653 108.545ZM73.6562 100.636C71.5199 100.636 70.0199 99.5909 70.0199 97.6364C70.0199 95.8409 71.2926 94.4545 74.2017 94C76.2017 93.6818 77.8835 93.2727 79.2017 92.7273V95.6364C79.2017 98.8182 76.4972 100.636 73.6562 100.636ZM110.196 88.3636C110.219 84.9091 112.173 82.8182 115.287 82.8182C118.446 82.8182 120.31 84.9091 120.287 88.3636V108H132.832V85.7273C132.855 78.1364 128.06 72.6364 120.651 72.6364C115.514 72.6364 111.446 75.3182 109.923 79.7273H109.56V73.0909H97.6506V108H110.196V88.3636ZM155.844 121.818C166.889 121.818 174.207 116.773 174.207 107.909V73.0909H161.662V79.1818H161.389C160.026 75.6364 156.753 72.6364 151.571 72.6364C144.662 72.6364 137.935 77.9091 137.935 90.5455C137.935 102.636 144.207 107.545 151.662 107.545C156.389 107.545 160.116 105.545 161.48 102H161.844V107.909C161.844 112.023 159.457 113.364 156.207 113.364C153.321 113.364 151.207 112.5 150.844 110.273H138.753C139.23 117 145.344 121.818 155.844 121.818ZM156.298 98.6364C152.844 98.6364 150.844 95.7273 150.844 90.5455C150.844 85.3636 152.844 82.2727 156.298 82.2727C159.753 82.2727 161.844 85.3636 161.844 90.5455C161.844 95.6364 159.753 98.6364 156.298 98.6364ZM197.315 108.636C206.997 108.636 213.224 104 214.406 96.7273H202.952C202.224 98.7045 200.156 99.8182 197.588 99.8182C193.861 99.8182 191.679 97.3636 191.679 94V93.4545H214.406V90.5455C214.406 79.4318 207.588 72.6364 197.043 72.6364C186.224 72.6364 179.315 79.8182 179.315 90.6364C179.315 101.932 186.134 108.636 197.315 108.636ZM191.679 86.5455C191.747 83.5227 194.247 81.4545 197.315 81.4545C200.429 81.4545 202.793 83.5455 202.861 86.5455H191.679ZM219.526 108H232.071V89.8182C232.071 85.8182 234.821 83.1818 238.526 83.1818C239.821 83.1818 241.912 83.3864 243.162 83.8182V73.1136C242.162 72.8182 241.071 72.6364 239.98 72.6364C236.253 72.6364 233.344 74.8182 232.071 79.7273H231.707V73.0909H219.526V108Z" fill="white"/>
</svg>
