<svg width="40" height="20" viewBox="0 0 40 20" fill="none" xmlns="http://www.w3.org/2000/svg">
<rect width="40" height="20" fill="#E05100"/>
<path d="M5.88636 13L6.22159 11.8864H8.14205L8.47727 13H10.1818L8.26136 7.18182H6.10227L4.18182 13H5.88636ZM6.57955 10.7045L7.15909 8.78409H7.20455L7.78409 10.7045H6.57955ZM12.3398 13H13.8511L14.8398 9.75H14.8852L15.8739 13H17.3852L19.1011 7.18182H17.3398L16.5443 10.7727H16.4989L15.5557 7.18182H14.1693L13.2261 10.7614H13.1807L12.3852 7.18182H10.6239L12.3398 13ZM21.2442 13L21.5794 11.8864H23.4999L23.8351 13H25.5396L23.6192 7.18182H21.4601L19.5396 13H21.2442ZM21.9374 10.7045L22.5169 8.78409H22.5624L23.1419 10.7045H21.9374ZM28.4795 7.18182H26.9V13H28.4795V7.18182ZM29.869 8.45455H31.619V13H33.1759V8.45455H34.9259V7.18182H29.869V8.45455Z" fill="white"/>
</svg>
