<svg width="40" height="20" viewBox="0 0 40 20" fill="none" xmlns="http://www.w3.org/2000/svg">
<rect width="40" height="20" fill="#D3D3D3"/>
<path d="M9.375 13H10.9545V10.7273H13.2159V9.45455H10.9545V8.45455H13.4659V7.18182H9.375V13ZM14.8469 13H16.4264V11.0795H16.9719L17.9946 13H19.7105L18.5287 10.8295C19.148 10.5312 19.5173 9.96591 19.5173 9.15909C19.5173 7.92045 18.6509 7.18182 17.3582 7.18182H14.8469V13ZM16.4264 9.85227V8.44318H16.9832C17.5372 8.44318 17.8696 8.65909 17.8696 9.15909C17.8696 9.65625 17.5372 9.85227 16.9832 9.85227H16.4264ZM20.9906 13H25.1724V11.7273H22.5702V10.7273H24.9679V9.45455H22.5702V8.45455H25.1838V7.18182H20.9906V13ZM26.7672 13H30.949V11.7273H28.3467V10.7273H30.7445V9.45455H28.3467V8.45455H30.9604V7.18182H26.7672V13Z" fill="white"/>
</svg>
