<svg width="40" height="20" viewBox="0 0 40 20" fill="none" xmlns="http://www.w3.org/2000/svg">
<rect width="40" height="20" fill="#66BF3C"/>
<path d="M9.375 13H10.9545V11.2727H11.8295C13.1562 11.2727 14.0455 10.4915 14.0455 9.23864C14.0455 8 13.179 7.18182 11.8864 7.18182H9.375V13ZM10.9545 10.0455V8.44318H11.5114C12.0653 8.44318 12.3977 8.73864 12.3977 9.23864C12.3977 9.7358 12.0653 10.0455 11.5114 10.0455H10.9545ZM16.2098 13L16.545 11.8864H18.4655L18.8007 13H20.5053L18.5848 7.18182H16.4257L14.5053 13H16.2098ZM16.903 10.7045L17.4825 8.78409H17.528L18.1075 10.7045H16.903ZM23.4452 7.18182H21.8656V13H23.4452V7.18182ZM27.2324 13C29.0051 13 30.1301 11.9091 30.1301 10.0909C30.1301 8.27273 29.0051 7.18182 27.2097 7.18182H24.9937V13H27.2324ZM26.5733 11.6591V8.52273H27.1301C28.0392 8.52273 28.5392 8.875 28.5392 10.0909C28.5392 11.3068 28.0392 11.6591 27.1756 11.6591H26.5733Z" fill="white"/>
</svg>
